<svg xmlns="http://www.w3.org/2000/svg" xmlns:xlink="http://www.w3.org/1999/xlink" width="500" zoomAndPan="magnify" viewBox="0 0 375 374.999991" height="500" preserveAspectRatio="xMidYMid meet" version="1.0"><defs><g/><clipPath id="cf841004f1"><path d="M 3.820312 3.890625 L 371.179688 3.890625 L 371.179688 371.25 L 3.820312 371.25 Z M 3.820312 3.890625 " clip-rule="nonzero"/></clipPath><clipPath id="4da55955a2"><path d="M 187.5 3.890625 C 86.054688 3.890625 3.820312 86.125 3.820312 187.570312 C 3.820312 289.015625 86.054688 371.25 187.5 371.25 C 288.945312 371.25 371.179688 289.015625 371.179688 187.570312 C 371.179688 86.125 288.945312 3.890625 187.5 3.890625 Z M 187.5 3.890625 " clip-rule="nonzero"/></clipPath></defs><g clip-path="url(#cf841004f1)"><g clip-path="url(#4da55955a2)"><path fill="#000000" d="M 3.820312 3.890625 L 371.179688 3.890625 L 371.179688 371.25 L 3.820312 371.25 Z M 3.820312 3.890625 " fill-opacity="1" fill-rule="nonzero"/><path stroke-linecap="butt" transform="matrix(0.75, 0, 0, 0.75, 3.820293, 3.890578)" fill="none" stroke-linejoin="miter" d="M 244.906292 0.0000625806 C 109.645866 0.0000625806 0.0000254545 109.645903 0.0000254545 244.906329 C 0.0000254545 380.166754 109.645866 489.812595 244.906292 489.812595 C 380.166717 489.812595 489.812558 380.166754 489.812558 244.906329 C 489.812558 109.645903 380.166717 0.0000625806 244.906292 0.0000625806 Z M 244.906292 0.0000625806 " stroke="#a6a6a6" stroke-width="12" stroke-opacity="1" stroke-miterlimit="4"/></g></g><g fill="#ffffff" fill-opacity="1"><g transform="translate(52.479054, 232.779294)"><g><path d="M 153.53125 -15.515625 C 153.53125 -4.117188 151.628906 6.21875 147.828125 15.5 C 144.035156 24.789062 138.757812 32.65625 132 39.09375 C 125.25 45.53125 117.175781 50.539062 107.78125 54.125 C 98.394531 57.71875 88.109375 59.515625 76.921875 59.515625 C 67.210938 59.515625 58.082031 58.035156 49.53125 55.078125 C 40.988281 52.128906 33.5 47.910156 27.0625 42.421875 C 20.625 36.929688 15.554688 30.125 11.859375 22 C 8.171875 13.875 6.328125 4.75 6.328125 -5.375 C 6.328125 -13.820312 7.960938 -21.472656 11.234375 -28.328125 C 14.503906 -35.191406 18.9375 -40.992188 24.53125 -45.734375 C 30.125 -50.484375 36.5625 -54.175781 43.84375 -56.8125 C 51.125 -59.457031 58.773438 -60.882812 66.796875 -61.09375 L 66.796875 -59.828125 C 52.648438 -56.242188 42.148438 -49.175781 35.296875 -38.625 C 28.441406 -28.070312 25.015625 -15.832031 25.015625 -1.90625 C 25.015625 5.488281 26.226562 12.664062 28.65625 19.625 C 31.082031 26.59375 34.507812 32.765625 38.9375 38.140625 C 43.363281 43.523438 48.742188 47.800781 55.078125 50.96875 C 61.410156 54.132812 68.484375 55.71875 76.296875 55.71875 C 92.753906 55.71875 105.148438 51.175781 113.484375 42.09375 C 121.816406 33.019531 125.984375 20.46875 125.984375 4.4375 C 125.984375 -4.425781 123.820312 -12.285156 119.5 -19.140625 C 115.175781 -26.003906 109.742188 -32.441406 103.203125 -38.453125 C 96.660156 -44.472656 89.640625 -50.171875 82.140625 -55.546875 C 74.648438 -60.929688 67.632812 -66.578125 61.09375 -72.484375 C 54.550781 -78.398438 49.113281 -84.785156 44.78125 -91.640625 C 40.457031 -98.503906 38.296875 -106.15625 38.296875 -114.59375 C 38.296875 -121.5625 39.613281 -127.785156 42.25 -133.265625 C 44.894531 -138.753906 48.484375 -143.398438 53.015625 -147.203125 C 57.554688 -151.003906 62.78125 -153.90625 68.6875 -155.90625 C 74.601562 -157.914062 80.832031 -158.921875 87.375 -158.921875 C 89.476562 -158.921875 91.53125 -158.707031 93.53125 -158.28125 C 95.539062 -157.851562 97.5 -157.429688 99.40625 -157.015625 L 107.3125 -154.484375 C 109.207031 -154.054688 111.15625 -153.628906 113.15625 -153.203125 C 115.164062 -152.785156 117.226562 -152.578125 119.34375 -152.578125 C 123.351562 -152.578125 126.625 -154.054688 129.15625 -157.015625 L 123.78125 -111.109375 C 122.9375 -115.117188 121.457031 -119.757812 119.34375 -125.03125 C 117.226562 -130.3125 114.585938 -135.328125 111.421875 -140.078125 C 108.265625 -144.828125 104.625 -148.835938 100.5 -152.109375 C 96.382812 -155.378906 91.898438 -157.015625 87.046875 -157.015625 C 79.242188 -157.015625 72.546875 -154.90625 66.953125 -150.6875 C 61.359375 -146.46875 58.5625 -140.132812 58.5625 -131.6875 C 58.5625 -124.9375 60.882812 -118.601562 65.53125 -112.6875 C 70.175781 -106.78125 76.03125 -101.03125 83.09375 -95.4375 C 90.164062 -89.84375 97.816406 -84.25 106.046875 -78.65625 C 114.273438 -73.070312 121.925781 -67.113281 129 -60.78125 C 136.070312 -54.445312 141.925781 -47.585938 146.5625 -40.203125 C 151.207031 -32.816406 153.53125 -24.585938 153.53125 -15.515625 Z M 153.53125 -15.515625 "/></g></g></g><g fill="#ffffff" fill-opacity="1"><g transform="translate(144.894737, 272.245028)"><g><path d="M 115.3125 -32.84375 C 113.46875 -38.351562 111 -43.738281 107.90625 -49 C 104.820312 -54.269531 101.191406 -58.992188 97.015625 -63.171875 C 92.835938 -67.347656 88.15625 -70.8125 82.96875 -73.5625 C 77.789062 -76.320312 72.109375 -78.039062 65.921875 -78.71875 C 63.585938 -78.882812 61.164062 -78.835938 58.65625 -78.578125 C 56.144531 -78.328125 53.71875 -77.785156 51.375 -76.953125 C 49.039062 -76.117188 46.910156 -74.945312 44.984375 -73.4375 C 43.066406 -71.9375 41.691406 -69.9375 40.859375 -67.4375 L 28.578125 -30.828125 C 25.234375 -21.304688 23.601562 -14.160156 23.6875 -9.390625 C 23.769531 -4.628906 25.484375 -2.25 28.828125 -2.25 L 28.828125 0 L 7.515625 0 L 7.515625 -2.25 C 8.523438 -2.25 9.695312 -2.707031 11.03125 -3.625 C 12.363281 -4.550781 13.820312 -6.140625 15.40625 -8.390625 C 17 -10.648438 18.710938 -13.660156 20.546875 -17.421875 C 22.390625 -21.179688 24.316406 -25.898438 26.328125 -31.578125 L 70.9375 -162.1875 L 66.171875 -175.96875 L 85.234375 -175.96875 L 133.109375 -36.34375 C 134.773438 -31.664062 136.398438 -27.238281 137.984375 -23.0625 C 139.578125 -18.882812 141.082031 -15.25 142.5 -12.15625 C 143.925781 -9.0625 145.222656 -6.632812 146.390625 -4.875 C 147.554688 -3.125 148.644531 -2.25 149.65625 -2.25 L 149.65625 0 L 120.328125 0 L 120.328125 -2.25 C 121.160156 -2.25 121.453125 -4.585938 121.203125 -9.265625 C 120.953125 -13.953125 119.65625 -19.804688 117.3125 -26.828125 Z M 43.609375 -74.953125 C 46.453125 -77.628906 49.960938 -79.34375 54.140625 -80.09375 C 58.316406 -80.84375 62.242188 -81.050781 65.921875 -80.71875 C 75.453125 -79.882812 83.804688 -76.707031 90.984375 -71.1875 C 98.171875 -65.675781 104.191406 -59.078125 109.046875 -51.390625 L 72.1875 -158.671875 Z M 43.609375 -74.953125 "/></g></g></g><g fill="#ffffff" fill-opacity="1"><g transform="translate(137.526353, 272.910061)"><g><path d="M 121.015625 -34.46875 C 119.078125 -40.25 116.484375 -45.898438 113.234375 -51.421875 C 109.992188 -56.953125 106.179688 -61.910156 101.796875 -66.296875 C 97.421875 -70.679688 92.515625 -74.316406 87.078125 -77.203125 C 81.640625 -80.097656 75.675781 -81.898438 69.1875 -82.609375 C 66.726562 -82.773438 64.179688 -82.726562 61.546875 -82.46875 C 58.921875 -82.207031 56.378906 -81.632812 53.921875 -80.75 C 51.472656 -79.875 49.238281 -78.644531 47.21875 -77.0625 C 45.195312 -75.488281 43.75 -73.390625 42.875 -70.765625 L 29.984375 -32.359375 C 26.484375 -22.359375 24.773438 -14.859375 24.859375 -9.859375 C 24.941406 -4.867188 26.738281 -2.375 30.25 -2.375 L 30.25 0 L 7.890625 0 L 7.890625 -2.375 C 8.941406 -2.375 10.164062 -2.851562 11.5625 -3.8125 C 12.96875 -4.78125 14.503906 -6.445312 16.171875 -8.8125 C 17.835938 -11.175781 19.632812 -14.332031 21.5625 -18.28125 C 23.5 -22.226562 25.519531 -27.179688 27.625 -33.140625 L 74.453125 -170.203125 L 69.453125 -184.671875 L 89.4375 -184.671875 L 139.6875 -38.140625 C 141.4375 -33.234375 143.144531 -28.585938 144.8125 -24.203125 C 146.476562 -19.816406 148.054688 -16 149.546875 -12.75 C 151.035156 -9.507812 152.394531 -6.96875 153.625 -5.125 C 154.851562 -3.289062 155.992188 -2.375 157.046875 -2.375 L 157.046875 0 L 126.265625 0 L 126.265625 -2.375 C 127.140625 -2.375 127.445312 -4.828125 127.1875 -9.734375 C 126.925781 -14.640625 125.566406 -20.773438 123.109375 -28.140625 Z M 45.765625 -78.65625 C 48.753906 -81.457031 52.4375 -83.253906 56.8125 -84.046875 C 61.195312 -84.835938 65.320312 -85.054688 69.1875 -84.703125 C 79.1875 -83.828125 87.953125 -80.492188 95.484375 -74.703125 C 103.023438 -68.921875 109.34375 -61.992188 114.4375 -53.921875 L 75.765625 -166.515625 Z M 45.765625 -78.65625 "/></g></g></g><g fill="#ffffff" fill-opacity="1"><g transform="translate(139.300395, 272.910061)"><g><path d="M 121.015625 -34.46875 C 119.078125 -40.25 116.484375 -45.898438 113.234375 -51.421875 C 109.992188 -56.953125 106.179688 -61.910156 101.796875 -66.296875 C 97.421875 -70.679688 92.515625 -74.316406 87.078125 -77.203125 C 81.640625 -80.097656 75.675781 -81.898438 69.1875 -82.609375 C 66.726562 -82.773438 64.179688 -82.726562 61.546875 -82.46875 C 58.921875 -82.207031 56.378906 -81.632812 53.921875 -80.75 C 51.472656 -79.875 49.238281 -78.644531 47.21875 -77.0625 C 45.195312 -75.488281 43.75 -73.390625 42.875 -70.765625 L 29.984375 -32.359375 C 26.484375 -22.359375 24.773438 -14.859375 24.859375 -9.859375 C 24.941406 -4.867188 26.738281 -2.375 30.25 -2.375 L 30.25 0 L 7.890625 0 L 7.890625 -2.375 C 8.941406 -2.375 10.164062 -2.851562 11.5625 -3.8125 C 12.96875 -4.78125 14.503906 -6.445312 16.171875 -8.8125 C 17.835938 -11.175781 19.632812 -14.332031 21.5625 -18.28125 C 23.5 -22.226562 25.519531 -27.179688 27.625 -33.140625 L 74.453125 -170.203125 L 69.453125 -184.671875 L 89.4375 -184.671875 L 139.6875 -38.140625 C 141.4375 -33.234375 143.144531 -28.585938 144.8125 -24.203125 C 146.476562 -19.816406 148.054688 -16 149.546875 -12.75 C 151.035156 -9.507812 152.394531 -6.96875 153.625 -5.125 C 154.851562 -3.289062 155.992188 -2.375 157.046875 -2.375 L 157.046875 0 L 126.265625 0 L 126.265625 -2.375 C 127.140625 -2.375 127.445312 -4.828125 127.1875 -9.734375 C 126.925781 -14.640625 125.566406 -20.773438 123.109375 -28.140625 Z M 45.765625 -78.65625 C 48.753906 -81.457031 52.4375 -83.253906 56.8125 -84.046875 C 61.195312 -84.835938 65.320312 -85.054688 69.1875 -84.703125 C 79.1875 -83.828125 87.953125 -80.492188 95.484375 -74.703125 C 103.023438 -68.921875 109.34375 -61.992188 114.4375 -53.921875 L 75.765625 -166.515625 Z M 45.765625 -78.65625 "/></g></g></g><g fill="#ffffff" fill-opacity="1"><g transform="translate(141.550394, 272.910061)"><g><path d="M 121.015625 -34.46875 C 119.078125 -40.25 116.484375 -45.898438 113.234375 -51.421875 C 109.992188 -56.953125 106.179688 -61.910156 101.796875 -66.296875 C 97.421875 -70.679688 92.515625 -74.316406 87.078125 -77.203125 C 81.640625 -80.097656 75.675781 -81.898438 69.1875 -82.609375 C 66.726562 -82.773438 64.179688 -82.726562 61.546875 -82.46875 C 58.921875 -82.207031 56.378906 -81.632812 53.921875 -80.75 C 51.472656 -79.875 49.238281 -78.644531 47.21875 -77.0625 C 45.195312 -75.488281 43.75 -73.390625 42.875 -70.765625 L 29.984375 -32.359375 C 26.484375 -22.359375 24.773438 -14.859375 24.859375 -9.859375 C 24.941406 -4.867188 26.738281 -2.375 30.25 -2.375 L 30.25 0 L 7.890625 0 L 7.890625 -2.375 C 8.941406 -2.375 10.164062 -2.851562 11.5625 -3.8125 C 12.96875 -4.78125 14.503906 -6.445312 16.171875 -8.8125 C 17.835938 -11.175781 19.632812 -14.332031 21.5625 -18.28125 C 23.5 -22.226562 25.519531 -27.179688 27.625 -33.140625 L 74.453125 -170.203125 L 69.453125 -184.671875 L 89.4375 -184.671875 L 139.6875 -38.140625 C 141.4375 -33.234375 143.144531 -28.585938 144.8125 -24.203125 C 146.476562 -19.816406 148.054688 -16 149.546875 -12.75 C 151.035156 -9.507812 152.394531 -6.96875 153.625 -5.125 C 154.851562 -3.289062 155.992188 -2.375 157.046875 -2.375 L 157.046875 0 L 126.265625 0 L 126.265625 -2.375 C 127.140625 -2.375 127.445312 -4.828125 127.1875 -9.734375 C 126.925781 -14.640625 125.566406 -20.773438 123.109375 -28.140625 Z M 45.765625 -78.65625 C 48.753906 -81.457031 52.4375 -83.253906 56.8125 -84.046875 C 61.195312 -84.835938 65.320312 -85.054688 69.1875 -84.703125 C 79.1875 -83.828125 87.953125 -80.492188 95.484375 -74.703125 C 103.023438 -68.921875 109.34375 -61.992188 114.4375 -53.921875 L 75.765625 -166.515625 Z M 45.765625 -78.65625 "/></g></g></g><g fill="#ffffff" fill-opacity="1"><g transform="translate(146.966978, 269.491016)"><g><path d="M 113.34375 -32.28125 C 111.53125 -37.695312 109.101562 -42.992188 106.0625 -48.171875 C 103.03125 -53.347656 99.457031 -57.988281 95.34375 -62.09375 C 91.238281 -66.195312 86.640625 -69.601562 81.546875 -72.3125 C 76.460938 -75.019531 70.878906 -76.703125 64.796875 -77.359375 C 62.492188 -77.523438 60.109375 -77.484375 57.640625 -77.234375 C 55.179688 -76.992188 52.800781 -76.460938 50.5 -75.640625 C 48.207031 -74.816406 46.113281 -73.664062 44.21875 -72.1875 C 42.332031 -70.707031 40.976562 -68.738281 40.15625 -66.28125 L 28.09375 -30.3125 C 24.800781 -20.945312 23.195312 -13.921875 23.28125 -9.234375 C 23.363281 -4.554688 25.046875 -2.21875 28.328125 -2.21875 L 28.328125 0 L 7.390625 0 L 7.390625 -2.21875 C 8.378906 -2.21875 9.53125 -2.664062 10.84375 -3.5625 C 12.15625 -4.46875 13.59375 -6.03125 15.15625 -8.25 C 16.71875 -10.46875 18.398438 -13.425781 20.203125 -17.125 C 22.015625 -20.820312 23.90625 -25.460938 25.875 -31.046875 L 69.734375 -159.421875 L 65.046875 -172.96875 L 83.765625 -172.96875 L 130.828125 -35.734375 C 132.472656 -31.128906 134.078125 -26.773438 135.640625 -22.671875 C 137.203125 -18.566406 138.679688 -14.992188 140.078125 -11.953125 C 141.472656 -8.910156 142.742188 -6.523438 143.890625 -4.796875 C 145.035156 -3.078125 146.101562 -2.21875 147.09375 -2.21875 L 147.09375 0 L 118.265625 0 L 118.265625 -2.21875 C 119.085938 -2.21875 119.375 -4.515625 119.125 -9.109375 C 118.882812 -13.710938 117.613281 -19.460938 115.3125 -26.359375 Z M 42.875 -73.671875 C 45.664062 -76.296875 49.113281 -77.976562 53.21875 -78.71875 C 57.320312 -79.457031 61.179688 -79.664062 64.796875 -79.34375 C 74.160156 -78.519531 82.375 -75.394531 89.4375 -69.96875 C 96.5 -64.550781 102.414062 -58.066406 107.1875 -50.515625 L 70.953125 -155.96875 Z M 42.875 -73.671875 "/></g></g></g></svg>